# xmcd
#
# Track frame offsets:
#	150
#	22099
#	42583
#	62820
#	80998
#	99699
#	114202
#	131428
#	144899
#	164756
#	178168
#	192767
#	206972
#	223418
#	238852
#	254397
#	273146
#	286837
#	305387
#
# Disc length: 4257 seconds
#
# Revision: 3
# Processed by: cddbd v1.5.2PL0 Copyright (c) Steve Scherf et al.
# Submitted via: EasyCDDAExtractor 11.5.0.1
#
DISCID=2a109f13
DTITLE=Various Artist - NCT 057
DYEAR=2004
DGENRE=Country
TTITLE0=Keith Urban - You'll Think Of Me
TTITLE1=Rascal Flatts - Mayberry
TTITLE2=Wynonna ft. Naomi Judd - Flies On The Butter (You Can't Go Home Again)
TTITLE3=Big and Rich - Wild West Show
TTITLE4=George Strait - Desperately
TTITLE5=Billy Currington - I Got A Feelin'
TTITLE6=Reba McEntire - Somebody
TTITLE7=Rick Trevino - Overnight Success
TTITLE8=Chris Cagle - I'd Be Lying
TTITLE9=Billy Dean - Thank God I'm A Country Boy
TTITLE10=Jeff Bates - I Wanna Make You Cry
TTITLE11=David Lee Murphy - Loco
TTITLE12=Dolly Parton - Welcome Home
TTITLE13=Pat Green - Guy Like Me
TTITLE14=Rachel Proctor - Didn't I
TTITLE15=Diamond Rio - We All Fall Down
TTITLE16=Amy Dalley - Men Don't Change
TTITLE17=MercyMe - I Can Only Imagine
TTITLE18=Katy Kiefer - My Song
EXTD=
EXTT0=
EXTT1=
EXTT2=
EXTT3=
EXTT4=
EXTT5=
EXTT6=
EXTT7=
EXTT8=
EXTT9=
EXTT10=
EXTT11=
EXTT12=
EXTT13=
EXTT14=
EXTT15=
EXTT16=
EXTT17=
EXTT18=
PLAYORDER=
